<svg width="24" height="24" viewBox="0 0 24 24" fill="none" xmlns="http://www.w3.org/2000/svg">
<path d="M12 4.62C14.4 4.62 14.688 4.629 15.6366 4.6722C16.2075 4.67894 16.7729 4.78387 17.3082 4.9824C17.699 5.12666 18.0525 5.3567 18.3426 5.6556C18.6415 5.94574 18.8715 6.29921 19.0158 6.69C19.2143 7.22528 19.3193 7.79073 19.326 8.3616C19.3692 9.312 19.38 9.6 19.38 12C19.38 14.4 19.371 14.688 19.3278 15.6366C19.3211 16.2075 19.2161 16.7729 19.0176 17.3082C18.7147 18.0927 18.0945 18.7129 17.31 19.0158C16.7747 19.2143 16.2093 19.3193 15.6384 19.326C14.6898 19.3692 14.4048 19.3782 12.0018 19.3782C9.5988 19.3782 9.3138 19.3692 8.3652 19.326C7.79433 19.3193 7.22888 19.2143 6.6936 19.0158C6.30281 18.8715 5.94934 18.6415 5.6592 18.3426C5.3603 18.0525 5.13026 17.699 4.986 17.3082C4.78747 16.7729 4.68254 16.2075 4.6758 15.6366C4.6308 14.688 4.62 14.403 4.62 12C4.62 9.597 4.629 9.312 4.6722 8.3634C4.67894 7.79253 4.78387 7.22708 4.9824 6.6918C5.12718 6.30084 5.35785 5.94736 5.6574 5.6574C5.94754 5.3585 6.30101 5.12846 6.6918 4.9842C7.22708 4.78567 7.79253 4.68074 8.3634 4.674C9.312 4.6308 9.6 4.62 12 4.62ZM12 3C9.5556 3 9.249 3.0102 8.2896 3.054C7.54273 3.06982 6.80392 3.21183 6.1044 3.474C5.50426 3.69987 4.96047 4.05366 4.5108 4.5108C4.05301 4.96029 3.69859 5.50409 3.4722 6.1044C3.21003 6.80392 3.06802 7.54273 3.0522 8.2896C3.0102 9.249 3 9.5556 3 12C3 14.4444 3.0102 14.751 3.054 15.7104C3.06982 16.4573 3.21183 17.1961 3.474 17.8956C3.70039 18.4959 4.05481 19.0397 4.5126 19.4892C4.96209 19.947 5.50589 20.3014 6.1062 20.5278C6.80572 20.79 7.54453 20.932 8.2914 20.9478C9.2514 20.9916 9.5574 21.0018 12.0018 21.0018C14.4462 21.0018 14.7528 20.9916 15.7122 20.9478C16.4591 20.932 17.1979 20.79 17.8974 20.5278C19.1058 20.0594 20.0612 19.104 20.5296 17.8956C20.7918 17.1961 20.9338 16.4573 20.9496 15.7104C20.9934 14.7504 21.0036 14.4444 21.0036 12C21.0036 9.5556 20.9934 9.249 20.9496 8.2896C20.9338 7.54273 20.7918 6.80392 20.5296 6.1044C20.3032 5.50409 19.9488 4.96029 19.491 4.5108C19.0415 4.05301 18.4977 3.69859 17.8974 3.4722C17.1979 3.21003 16.4591 3.06802 15.7122 3.0522C14.751 3.0102 14.4444 3 12 3Z" fill="white"/>
<path d="M12 7.38C9.44845 7.38 7.38 9.44845 7.38 12C7.38 14.5516 9.44845 16.62 12 16.62C14.5516 16.62 16.62 14.5516 16.62 12C16.62 9.44845 14.5516 7.38 12 7.38ZM12 15C10.3432 15 9 13.6569 9 12C9 10.3432 10.3432 9 12 9C13.6569 9 15 10.3432 15 12C15 13.6569 13.6569 15 12 15Z" fill="white"/>
<path d="M16.8 8.27999C17.3965 8.27999 17.88 7.79646 17.88 7.2C17.88 6.60353 17.3965 6.12 16.8 6.12C16.2035 6.12 15.72 6.60353 15.72 7.2C15.72 7.79646 16.2035 8.27999 16.8 8.27999Z" fill="white"/>
</svg>
