<svg width="24" height="24" viewBox="0 0 24 24" fill="none" xmlns="http://www.w3.org/2000/svg">
<path d="M21.4286 6L21.4286 18.8571L14.5714 20.5714L9.42855 18.8571L2.57141 20.5714L2.57141 7.71429" stroke="#565E6C" stroke-width="2.05714" stroke-miterlimit="10" stroke-linecap="square"/>
<path d="M17.1429 7.71429C17.1429 10.8883 12 16.2857 12 16.2857C12 16.2857 6.85718 10.8883 6.85718 7.71429C6.85718 4.45972 9.51518 2.57143 12 2.57143C14.4849 2.57143 17.1429 4.45972 17.1429 7.71429Z" stroke="#565E6C" stroke-width="2.05714" stroke-miterlimit="10" stroke-linecap="square"/>
<path d="M12 8.57143C12.4734 8.57143 12.8571 8.18767 12.8571 7.71429C12.8571 7.2409 12.4734 6.85714 12 6.85714C11.5266 6.85714 11.1428 7.2409 11.1428 7.71429C11.1428 8.18767 11.5266 8.57143 12 8.57143Z" stroke="#565E6C" stroke-width="2.05714" stroke-miterlimit="10" stroke-linecap="square"/>
<path d="M12 8.57143C12.4734 8.57143 12.8571 8.18767 12.8571 7.71429C12.8571 7.2409 12.4734 6.85714 12 6.85714C11.5266 6.85714 11.1428 7.2409 11.1428 7.71429C11.1428 8.18767 11.5266 8.57143 12 8.57143Z" fill="#565E6C"/>
</svg>
