<svg width="24" height="24" viewBox="0 0 24 24" fill="none" xmlns="http://www.w3.org/2000/svg">
<path d="M19.92 2.64001L4.08001 2.64001C3.28472 2.64001 2.64001 3.28472 2.64001 4.08001L2.64001 19.92C2.64001 20.7153 3.28472 21.36 4.08001 21.36L19.92 21.36C20.7153 21.36 21.36 20.7153 21.36 19.92L21.36 4.08001C21.36 3.28472 20.7153 2.64001 19.92 2.64001ZM19.92 19.92L4.08001 19.92L4.08001 4.08001L19.92 4.08001L19.92 19.92ZM9.12001 10.56L9.12001 16.32C9.12001 16.7177 8.79766 17.04 8.40001 17.04C8.00237 17.04 7.68001 16.7177 7.68001 16.32L7.68001 10.56C7.68001 10.1624 8.00237 9.84001 8.40001 9.84001C8.79766 9.84001 9.12001 10.1624 9.12001 10.56ZM17.04 13.08L17.04 16.32C17.04 16.7177 16.7177 17.04 16.32 17.04C15.9224 17.04 15.6 16.7177 15.6 16.32L15.6 13.08C15.6 12.0859 14.7941 11.28 13.8 11.28C12.8059 11.28 12 12.0859 12 13.08L12 16.32C12 16.7177 11.6777 17.04 11.28 17.04C10.8824 17.04 10.56 16.7177 10.56 16.32L10.56 10.56C10.5619 10.195 10.8366 9.88909 11.1994 9.84819C11.5621 9.8073 11.898 10.0443 11.9811 10.3998C12.9737 9.72649 14.257 9.65657 15.3168 10.2181C16.3767 10.7796 17.0396 11.8806 17.04 13.08ZM9.48001 8.04001C9.48001 8.63648 8.99648 9.12001 8.40001 9.12001C7.80355 9.12001 7.32001 8.63648 7.32001 8.04001C7.32001 7.44355 7.80355 6.96001 8.40001 6.96001C8.99648 6.96001 9.48001 7.44355 9.48001 8.04001Z" fill="white"/>
</svg>
