<svg width="24" height="24" viewBox="0 0 24 24" fill="none" xmlns="http://www.w3.org/2000/svg">
<path d="M16.2857 20.5714L12 21.4286L7.71429 20.5714L7.71429 13.7143L12 14.5714L16.2857 13.7143V20.5714Z" stroke="#636AE8" stroke-width="2.05714" stroke-miterlimit="10" stroke-linecap="square"/>
<path d="M12 8.57143C11.2044 8.57143 10.4413 8.25536 9.87868 7.69275C9.31607 7.13014 9 6.36708 9 5.57143C9 4.77578 9.31607 4.01272 9.87868 3.45011C10.4413 2.8875 11.2044 2.57143 12 2.57143C12.7956 2.57143 13.5587 2.8875 14.1213 3.45011C14.6839 4.01272 15 4.77578 15 5.57143C15 6.36708 14.6839 7.13014 14.1213 7.69275C13.5587 8.25536 12.7956 8.57143 12 8.57143Z" stroke="#636AE8" stroke-width="2.05714" stroke-miterlimit="10" stroke-linecap="square"/>
<path d="M10.2857 17.1429L4.23083 18.4886C4.07589 18.5229 3.91445 18.5136 3.7645 18.4616C3.61455 18.4096 3.48198 18.317 3.38156 18.1941C3.28114 18.0712 3.21682 17.9228 3.19575 17.7655C3.17469 17.6082 3.19772 17.4481 3.26226 17.3031L5.77369 11.652C5.84102 11.5004 5.95088 11.3717 6.08993 11.2813C6.22899 11.1909 6.39128 11.1428 6.55712 11.1429L17.4428 11.1429C17.6087 11.1428 17.771 11.1909 17.91 11.2813C18.0491 11.3717 18.1589 11.5004 18.2263 11.652L20.7377 17.3031C20.8022 17.4481 20.8253 17.6082 20.8042 17.7655C20.7831 17.9228 20.7188 18.0712 20.6184 18.1941C20.518 18.317 20.3854 18.4096 20.2355 18.4616C20.0855 18.5136 19.9241 18.5229 19.7691 18.4886L13.7143 17.1429" stroke="#636AE8" stroke-width="2.05714" stroke-miterlimit="10" stroke-linecap="square"/>
</svg>
