<svg width="589" height="122" viewBox="0 0 589 122" fill="none" xmlns="http://www.w3.org/2000/svg">
<mask id="path-1-inside-1_1_117" fill="white">
<path fill-rule="evenodd" clip-rule="evenodd" d="M11 0H7C3.13401 0 0 3.13401 0 7V115C0 118.866 3.13402 122 7.00001 122H582C585.866 122 589 118.866 589 115V7C589 3.134 585.866 0 582 0H186V1H582C585.314 1 588 3.68629 588 7V115C588 118.314 585.314 121 582 121H7.00001C3.6863 121 1 118.314 1 115V7C1 3.68629 3.68629 1 7 1H11V0Z"/>
</mask>
<path fill-rule="evenodd" clip-rule="evenodd" d="M11 0H7C3.13401 0 0 3.13401 0 7V115C0 118.866 3.13402 122 7.00001 122H582C585.866 122 589 118.866 589 115V7C589 3.134 585.866 0 582 0H186V1H582C585.314 1 588 3.68629 588 7V115C588 118.314 585.314 121 582 121H7.00001C3.6863 121 1 118.314 1 115V7C1 3.68629 3.68629 1 7 1H11V0Z" fill="#D9D9D9"/>
<path d="M11 0H12V-1H11V0ZM186 0V-1H185V0H186ZM186 1H185V2H186V1ZM11 1V2H12V1H11ZM7 1H11V-1H7V1ZM1 7C1 3.68629 3.68629 1 7 1V-1C2.58172 -1 -1 2.58172 -1 7H1ZM1 115V7H-1V115H1ZM7.00001 121C3.6863 121 1 118.314 1 115H-1C-1 119.418 2.58174 123 7.00001 123V121ZM582 121H7.00001V123H582V121ZM588 115C588 118.314 585.314 121 582 121V123C586.418 123 590 119.418 590 115H588ZM588 7V115H590V7H588ZM582 1C585.314 1 588 3.68629 588 7H590C590 2.58172 586.418 -1 582 -1V1ZM186 1H582V-1H186V1ZM185 0V1H187V0H185ZM582 0H186V2H582V0ZM589 7C589 3.13401 585.866 0 582 0V2C584.761 2 587 4.23857 587 7H589ZM589 115V7H587V115H589ZM582 122C585.866 122 589 118.866 589 115H587C587 117.761 584.761 120 582 120V122ZM7.00001 122H582V120H7.00001V122ZM0 115C0 118.866 3.13402 122 7.00001 122V120C4.23858 120 2 117.761 2 115H0ZM0 7V115H2V7H0ZM7 0C3.13401 0 0 3.13401 0 7H2C2 4.23858 4.23858 2 7 2V0ZM11 0H7V2H11V0ZM12 1V0H10V1H12Z" fill="#DEE1E6" mask="url(#path-1-inside-1_1_117)"/>
</svg>
